<?xml version="1.0" encoding="UTF-8" standalone="no"?>
<!-- Created with Inkscape (http://www.inkscape.org/) -->

<svg
   width="16"
   height="16"
   viewBox="0 0 4.2333332 4.2333333"
   version="1.1"
   id="svg5"
   inkscape:version="1.2.2 (732a01da63, 2022-12-09)"
   sodipodi:docname="logo.svg"
   xmlns:inkscape="http://www.inkscape.org/namespaces/inkscape"
   xmlns:sodipodi="http://sodipodi.sourceforge.net/DTD/sodipodi-0.dtd"
   xmlns="http://www.w3.org/2000/svg"
   xmlns:svg="http://www.w3.org/2000/svg">
  <sodipodi:namedview
     id="namedview7"
     pagecolor="#505050"
     bordercolor="#eeeeee"
     borderopacity="1"
     inkscape:showpageshadow="0"
     inkscape:pageopacity="0"
     inkscape:pagecheckerboard="0"
     inkscape:deskcolor="#505050"
     inkscape:document-units="mm"
     showgrid="false"
     inkscape:zoom="29.276992"
     inkscape:cx="5.9432335"
     inkscape:cy="6.9337724"
     inkscape:window-width="3648"
     inkscape:window-height="2126"
     inkscape:window-x="2293"
     inkscape:window-y="5"
     inkscape:window-maximized="1"
     inkscape:current-layer="layer1" />
  <defs
     id="defs2" />
  <g
     inkscape:label="Layer 1"
     inkscape:groupmode="layer"
     id="layer1">
    <rect
       style="fill:#deb887;fill-opacity:1;stroke-width:25.4"
       id="rect234"
       width="4.2333331"
       height="4.2333331"
       x="0"
       y="0"
       ry="0.52916664" />
    <rect
       style="fill:#faebd7;fill-opacity:1;stroke-width:25.4"
       id="rect2402"
       width="3.7041667"
       height="3.175"
       x="0.26458332"
       y="0.26458332"
       ry="0.39687499" />
    <g
       aria-label="s"
       id="text3184"
       style="font-size:4.23333px;stroke-width:25.4">
      <path
         d="M 2.6199947,0.84852782 V 1.4934491 H 2.5517819 Q 2.4732338,1.189592 2.3492104,1.080038 2.2272541,0.97048409 2.037085,0.97048409 q -0.1446939,0 -0.2335772,0.076481 -0.088883,0.076481 -0.088883,0.1694986 0,0.1157551 0.066146,0.1984373 0.064079,0.084749 0.260449,0.1798339 l 0.3017902,0.1467609 q 0.4196122,0.2046385 0.4196122,0.5395015 0,0.258382 -0.1963702,0.4175452 -0.1943033,0.1570963 -0.4361488,0.1570963 -0.1736326,0 -0.3968746,-0.062012 -0.068213,-0.020671 -0.111621,-0.020671 -0.047542,0 -0.074414,0.053744 H 1.47898 V 2.1507728 h 0.068213 q 0.057878,0.2893878 0.2211749,0.4361487 0.1632974,0.146761 0.3658688,0.146761 0.1426269,0 0.2315103,-0.082682 0.09095,-0.084749 0.09095,-0.2025715 0,-0.1426268 -0.1012857,-0.2397784 Q 2.2561929,2.1114988 1.9564699,1.9626708 1.6567468,1.8138428 1.5637293,1.6939535 1.4707118,1.5761314 1.4707118,1.3962975 q 0,-0.2335772 0.1591633,-0.3906735 0.1612303,-0.15709618 0.4154782,-0.15709618 0.111621,0 0.2707842,0.0475423 0.1054199,0.0310058 0.1405598,0.0310058 0.033073,0 0.051676,-0.0144694 0.018604,-0.0144694 0.043408,-0.0640787 z"
         style="font-family:'Times New Roman';-inkscape-font-specification:'Times New Roman, '"
         id="path4072" />
    </g>
  </g>
</svg>
