<svg viewBox="0 0 4.2333332 4.2333333" xmlns="http://www.w3.org/2000/svg"><g stroke-width="25.4"><rect fill="#deb887" height="4.233333" ry=".529167" width="4.233333"/><rect fill="#faebd7" height="3.175" ry=".396875" width="3.704167" x=".264583" y=".264583"/><path d="m2.6199947.84852782v.64492128h-.0682128q-.0785481-.3038571-.2025715-.4134111-.1219563-.10955391-.3121254-.10955391-.1446939 0-.2335772.076481-.088883.076481-.088883.1694986 0 .1157551.066146.1984373.064079.084749.260449.1798339l.3017902.1467609q.4196122.2046385.4196122.5395015 0 .258382-.1963702.4175452-.1943033.1570963-.4361488.1570963-.1736326 0-.3968746-.062012-.068213-.020671-.111621-.020671-.047542 0-.074414.053744h-.0682136v-.67592699h.068213q.057878.2893878.2211749.4361487.1632974.146761.3658688.146761.1426269 0 .2315103-.082682.09095-.084749.09095-.2025715 0-.1426268-.1012857-.2397784-.0992184-.0971518-.3989414-.2459798-.2997231-.148828-.3927406-.2687173-.0930175-.1178221-.0930175-.297656 0-.2335772.1591633-.3906735.1612303-.15709618.4154782-.15709618.111621 0 .2707842.0475423.1054199.0310058.1405598.0310058.033073 0 .051676-.0144694.018604-.0144694.043408-.0640787z"/></g></svg>